<svg id="Capa_1" enable-background="new 0 0 508.185 508.185" height="512" viewBox="0 0 508.185 508.185" width="512" xmlns="http://www.w3.org/2000/svg"><g><path d="m399.112 106.873c-19.136 0-36.96 5.619-51.912 15.297-14.563-64.111-71.904-111.968-140.423-111.968-79.529 0-144 64.471-144 144 0 12.161 1.508 23.969 4.346 35.249-29.714.369-53.689 24.571-53.689 54.373 0 30.032 24.346 54.378 54.378 54.378h331.301c52.834 0 95.664-42.83 95.664-95.664s-42.831-95.665-95.665-95.665z" fill="#a7bdcd"/><path d="m165.105 498.185c-55.14 0-100-44.86-100-100 0-35.707 19.153-68.967 49.986-86.802 18.513-10.709 30.014-30.71 30.014-52.198 0-21.059-10.74-40.207-28.73-51.221-9.42-5.768-12.382-18.08-6.614-27.5s18.08-12.382 27.5-6.614c29.958 18.342 47.844 50.243 47.844 85.335 0 35.718-19.153 68.987-49.985 86.822-18.514 10.709-30.015 30.703-30.015 52.178 0 33.084 26.916 60 60 60 11.046 0 20 8.954 20 20s-8.954 20-20 20zm159-20c0-11.046-8.954-20-20-20-33.084 0-60-26.916-60-60 0-21.475 11.501-41.468 30.015-52.178 30.832-17.835 49.985-51.104 49.985-86.822 0-35.092-17.886-66.993-47.844-85.335-9.42-5.768-21.732-2.806-27.5 6.614s-2.806 21.732 6.614 27.5c17.99 11.014 28.73 30.162 28.73 51.221 0 21.487-11.501 41.488-30.014 52.198-30.833 17.835-49.986 51.096-49.986 86.802 0 55.14 44.86 100 100 100 11.046 0 20-8.954 20-20zm139 0c0-11.046-8.954-20-20-20-33.084 0-60-26.916-60-60 0-21.475 11.501-41.468 30.015-52.178 30.832-17.835 49.985-51.104 49.985-86.822 0-35.092-17.886-66.993-47.844-85.335-9.42-5.768-21.732-2.806-27.5 6.614s-2.806 21.732 6.614 27.5c17.99 11.014 28.73 30.162 28.73 51.221 0 21.487-11.501 41.488-30.014 52.198-30.833 17.835-49.986 51.096-49.986 86.802 0 55.14 44.86 100 100 100 11.046 0 20-8.954 20-20z" fill="#ffea60"/><path d="m418.127 354.664c27.865-16.119 47.056-43.693 53.015-74.804 20.808-19.291 33.831-46.862 33.831-77.474 0-58.335-47.29-105.625-105.625-105.625-16.438 0-31.999 3.755-45.872 10.454-9.607-30.206-28.591-57.724-56.2-77.786-55.492-40.323-128.874-38.208-181.422.217-10.772 7.86.992 23.985 11.765 16.125l.016.044c45.726-33.451 109.591-35.299 157.885-.206 27.391 19.904 45.027 48.243 51.934 78.865 1.528 6.775 9.362 9.936 15.18 6.142 14.079-9.182 31.026-14.335 49.204-13.819 44.294 1.256 80.675 36.692 83.013 80.942.956 18.095-3.709 35.046-12.405 49.263-3.675-33.712-22.516-63.651-51.961-81.68-14.11-8.637-32.613-4.187-41.25 9.921-8.638 14.108-4.188 32.612 9.92 41.25 14.998 9.182 23.952 25.142 23.952 42.692 0 10.409-3.232 20.398-8.962 28.693-1.587.088-3.186.132-4.796.132l-69.085-.019c2.518-9.283 3.843-18.96 3.843-28.807 0-38.601-19.672-73.689-52.622-93.864-14.11-8.637-32.613-4.187-41.25 9.921-8.638 14.108-4.188 32.612 9.92 41.25 14.998 9.182 23.952 25.142 23.952 42.692 0 10.449-3.257 20.475-9.029 28.789l-73.804-.02c2.512-9.272 3.832-18.936 3.832-28.769 0-38.601-19.672-73.689-52.622-93.864-14.11-8.637-32.613-4.187-41.25 9.921-8.638 14.108-4.188 32.612 9.92 41.25 14.998 9.182 23.952 25.142 23.952 42.692 0 10.433-3.247 20.445-9.003 28.751l-61.384-.016c-22.108-1.39-40.026-19.309-41.416-41.418-1.487-23.647 17.77-47.094 43.461-47.094 6.713 0 11.743-5.936 10.096-12.443-6.149-24.289-5.491-50.177 2.467-74.542l-.18-.043c4.095-12.535-14.746-18.69-18.841-6.155-7.908 24.217-9.541 49.743-5.266 74.258-29.547 5.837-51.828 31.893-51.828 63.153 0 35.553 28.822 64.375 64.375 64.375h34.244c-29.043 20.486-46.726 54.202-46.726 90.175 0 60.654 49.346 110 110 110 16.542 0 30-13.458 30-30s-13.458-30-30-30c-27.57 0-50-22.43-50-50 0-17.917 9.588-34.594 25.021-43.521 19.07-11.031 34.078-27.429 43.562-46.653h57.142c-29.043 20.486-46.726 54.202-46.726 90.175 0 60.654 49.346 110 110 110 16.542 0 30-13.458 30-30s-13.458-30-30-30c-27.57 0-50-22.43-50-50 0-17.917 9.588-34.594 25.021-43.521 19.07-11.031 34.078-27.429 43.562-46.653h57.142c-29.043 20.486-46.726 54.202-46.726 90.175 0 60.654 49.346 110 110 110 16.542 0 30-13.458 30-30s-13.458-30-30-30c-27.57 0-50-22.43-50-50 .002-17.917 9.59-34.594 25.024-43.521zm-288.014-17.313c-21.594 12.491-35.008 35.801-35.008 60.834 0 38.598 31.402 70 70 70 5.514 0 10 4.486 10 10s-4.486 10-10 10c-49.626 0-90-40.374-90-90 0-32.148 17.24-62.092 44.994-78.146 21.592-12.491 35.006-35.809 35.006-60.854 0-24.567-12.527-46.903-33.509-59.749-11.306-6.922-.863-23.98 10.443-17.058 26.966 16.51 43.065 45.223 43.065 76.807.001 32.161-17.239 62.112-44.991 78.166zm139 0c-21.594 12.491-35.008 35.801-35.008 60.834 0 38.598 31.402 70 70 70 5.514 0 10 4.486 10 10s-4.486 10-10 10c-49.626 0-90-40.374-90-90 0-32.148 17.24-62.092 44.994-78.146 21.592-12.491 35.006-35.809 35.006-60.854 0-24.567-12.527-46.903-33.509-59.749-11.306-6.922-.863-23.98 10.443-17.058 26.966 16.51 43.065 45.223 43.065 76.807.001 32.161-17.239 62.112-44.991 78.166zm103.992 60.834c0 38.598 31.402 70 70 70 5.514 0 10 4.486 10 10s-4.486 10-10 10c-49.626 0-90-40.374-90-90 0-32.148 17.24-62.092 44.994-78.146 21.592-12.491 35.006-35.809 35.006-60.854 0-24.567-12.527-46.903-33.509-59.749-11.306-6.922-.863-23.98 10.443-17.058 26.966 16.51 43.065 45.223 43.065 76.807 0 32.161-17.24 62.112-44.992 78.166-21.593 12.491-35.007 35.801-35.007 60.834zm-293.049-328.796c0-5.522 4.476-9.998 9.998-9.998s9.998 4.476 9.998 9.998-4.476 9.999-9.998 9.999c-5.522-.001-9.998-4.477-9.998-9.999z"/></g></svg>