<svg height="512" viewBox="0 0 64 64" width="512" xmlns="http://www.w3.org/2000/svg"><g id="Flat"><g id="Stroke_copy_2" data-name="Stroke copy 2"><g><path d="m18.286 55.438a9.69 9.69 0 0 1 -3.353-.6 1 1 0 0 1 .693-1.877 7.659 7.659 0 0 0 5.058.088 1 1 0 1 1 .632 1.9 9.6 9.6 0 0 1 -3.03.489z" fill="#e59730"/><path d="m12 61a1 1 0 0 1 -.707-1.707 5.789 5.789 0 0 0 1.707-4.121v-.433a1 1 0 0 1 2 0v.433a7.772 7.772 0 0 1 -2.293 5.535 1 1 0 0 1 -.707.293z" fill="#e59730"/><path d="m14.94 51.414-1.6-1.2 2.46-3.276-1.427-2.379 1.715-1.03 1.773 2.956a1 1 0 0 1 -.061 1.115z" fill="#e59730"/><path d="m10.153 15.647v.006a7.863 7.863 0 0 0 2.547 5.611l4.22 3.872a7.861 7.861 0 0 1 2.445 7.046 7.86 7.86 0 0 0 4.382 8.351l5.771 2.747a8 8 0 0 1 4.382 8.908l-1.9 8.812 8.407-12.491a7.487 7.487 0 0 0 .576-7.344 7.49 7.49 0 0 1 1.931-8.865l1.947-1.659a7.5 7.5 0 0 0 2.566-6.684l-.266-2a7.49 7.49 0 0 1 1.355-5.372l5.484-7.585-6.588.9a114.038 114.038 0 0 1 -30.824 0 5.671 5.671 0 0 0 -6.435 5.747z" fill="#d0d8da"/><path d="m49.196 33.536h8v8h-8z" fill="#d0d8da" transform="matrix(.866 .5 -.5 .866 25.895 -21.569)"/><path d="m51.807 30 7.168.793 2.025 6.92z" fill="#fcbc04"/><path d="m50 53h4a0 0 0 0 1 0 0v2a4 4 0 0 1 -4 4h-4a0 0 0 0 1 0 0v-2a4 4 0 0 1 4-4z" fill="#a1d51c" transform="matrix(-1 0 0 -1 100 112)"/><g><path d="m16.244 54.426a4.091 4.091 0 0 0 .64 2.9l1.116 1.674-3.235-2.588a12 12 0 0 1 -2.9-3.37l-3.865-6.702 3.464-2 4.279 7.41a4.1 4.1 0 0 1 .501 2.676z" fill="#f9e109"/><path d="m16.222 54.778-.456-.366a11.987 11.987 0 0 1 -2.9-3.37l-1.5-2.6a2.034 2.034 0 0 0 .378-.477 1.976 1.976 0 0 0 .256.035 1.97 1.97 0 0 0 1.29-.5l-1.826-3.16-3.464 2 3.87 6.7a11.987 11.987 0 0 0 2.9 3.37l3.23 2.59-1.116-1.675a4.083 4.083 0 0 1 -.662-2.547z" fill="#fcbc04"/><path d="m15 39a2.971 2.971 0 0 0 -1.11.218c-.024-.012-.045-.027-.07-.038a2 2 0 0 0 -1.82-1.18 1.905 1.905 0 0 0 -.263.027 1.979 1.979 0 0 0 -3.237-.337 2 2 0 0 0 -3.157 2.43 1.975 1.975 0 0 0 -1.066 2.88 1.973 1.973 0 0 0 .066 2.12 1.995 1.995 0 1 0 2.537 2.537 1.988 1.988 0 0 0 2.857-.684 1.905 1.905 0 0 0 .263.027 1.991 1.991 0 0 0 1.744-1.039 1.976 1.976 0 0 0 .256.039 2 2 0 0 0 1.846-1.232 3 3 0 1 0 1.154-5.768z" fill="#c4f236"/><path d="m16 42a2.976 2.976 0 0 1 -1.154-.232 2 2 0 0 1 -1.846 1.232 1.976 1.976 0 0 1 -.256-.039 1.991 1.991 0 0 1 -1.744 1.039 1.905 1.905 0 0 1 -.263-.027 1.988 1.988 0 0 1 -2.857.684 1.993 1.993 0 0 1 -3.537.463 1.995 1.995 0 1 0 2.537 2.537 1.988 1.988 0 0 0 2.857-.684 1.905 1.905 0 0 0 .263.027 1.991 1.991 0 0 0 1.744-1.039 1.976 1.976 0 0 0 .256.039 2 2 0 0 0 1.846-1.232 2.978 2.978 0 0 0 4.062-3.468 2.972 2.972 0 0 1 -1.908.7z" fill="#a1d51c"/></g><path d="m40.922 41h-1.522a24.219 24.219 0 0 1 -10.4-2.349 8.049 8.049 0 0 1 -4.634-8.439 7.86 7.86 0 0 0 -2.44-7.076l-4.232-3.883a7.818 7.818 0 0 1 -2.532-5.6 5.6 5.6 0 0 1 1.337-3.762 5.667 5.667 0 0 0 -6.338 5.756v.006a7.859 7.859 0 0 0 2.544 5.61l4.22 3.873a7.861 7.861 0 0 1 2.445 7.046 7.86 7.86 0 0 0 4.382 8.351l5.771 2.747a8 8 0 0 1 4.377 8.908l-1.9 8.812 8.407-12.491a7.487 7.487 0 0 0 .576-7.344c-.025-.054-.037-.111-.061-.165z" fill="#93999a"/><path d="m48 57h-2v2h4a4 4 0 0 0 4-4v-2h-.349a6 6 0 0 1 -5.651 4z" fill="#7ab92d"/><path d="m51.732 32.072-.957 1.658 4.789 2.77a5 5 0 0 1 -6.234 1l-.549-.317-1.049 1.817 6.928 4 4-6.928z" fill="#93999a"/><path d="m57.975 31.793 1.312 4.483 1.713 1.437-2.025-6.92-7.168-.793 1.525 1.279z" fill="#f9e109"/><g fill="#4891d3"><path d="m51.531 12.414-1.231 1.705.326.1c3.174.969 3.374 1.773 3.374 1.781 0 1.2-8.166 4-24 4s-24-2.8-24-4c0-.01.275-.992 4.381-2.064a5.643 5.643 0 0 1 1.246-2.236l-.029-.121-.973.232c-4.458 1.062-6.625 2.432-6.625 4.189 0 4.746 17.007 6 26 6s26-1.254 26-6c0-1.448-1.473-2.621-4.469-3.586z"/><path d="m47.421 20.779-.314-.091a7.486 7.486 0 0 0 .054 1.268l.115.869c3.036.943 3.724 1.882 3.724 2.175 0 1.357-6.707 4-19 4s-19-2.643-19-4c0-.219.356-.76 1.692-1.4l.361-.174-1.576-1.446c-1.637.862-2.477 1.876-2.477 3.02 0 4.122 10.886 6 21 6s21-1.878 21-6c0-1.728-1.877-3.147-5.579-4.221z"/><path d="m43.987 31.389-1.073.914q-.285.243-.538.507l.356.173c1.035.505 1.268.917 1.268 1.017 0 .9-4.763 3-14 3s-14-2.1-14-3c0-.182.587-.995 3.36-1.779 0-.013 0-.026 0-.039a7.831 7.831 0 0 0 .055-2.049l-.215.056c-3.45.911-5.2 2.192-5.2 3.811 0 3.436 8.294 5 16 5s16-1.564 16-5c0-1-.682-1.877-2.013-2.611z"/><path d="m40.939 39.5-.5-.108a7.439 7.439 0 0 0 .546 1.775c.069.148.125.3.183.45 2.508.648 3.832 1.658 3.832 2.383 0 1.224-3.506 3-9 3s-9-1.776-9-3c0-.422.469-.844.748-1.058l.406-.31-2-.954a3.14 3.14 0 0 0 -1.154 2.322c0 3.248 5.667 5 11 5s11-1.752 11-5c0-2-2.266-3.686-6.061-4.5z"/><path d="m40.99 47.448a7.319 7.319 0 0 1 -.583 1.061l-.5.752.4.079a6.552 6.552 0 0 1 2.021.665 13.092 13.092 0 0 1 -5.828.995 13.091 13.091 0 0 1 -5.823-1 8.808 8.808 0 0 1 3.16-.846l.115-.014a7.98 7.98 0 0 0 -.6-1.938c-2.269.311-4.852 1.046-4.852 2.798 0 2.916 7.181 3 8 3s8-.084 8-3c0-1.184-1.189-2.039-3.51-2.552z"/></g><path d="m53.641 48.537a6.449 6.449 0 0 1 -1.765-.246l-1.151-.329a1 1 0 0 1 .55-1.924l1.151.329a4.43 4.43 0 0 0 5.588-3.531 1 1 0 1 1 1.972.328 6.428 6.428 0 0 1 -6.345 5.373z" fill="#84d2f4"/><path d="m46 60a1 1 0 0 1 -.6-1.8l4-3a1 1 0 0 1 1.2 1.6l-4 3a1 1 0 0 1 -.6.2z" fill="#5ba006"/><path d="m9.33 58.066a4.4 4.4 0 0 1 -4.31-5.266 1 1 0 1 1 1.96.392 2.4 2.4 0 0 0 2.82 2.828 1 1 0 1 1 .392 1.96 4.385 4.385 0 0 1 -.862.086z" fill="#84d2f4"/><path d="m21 51a1 1 0 0 1 -.448-1.9l2-1a1 1 0 1 1 .894 1.79l-2 1a1 1 0 0 1 -.446.11z" fill="#84d2f4"/><path d="m42 58h-2a1 1 0 0 1 0-2h2a1 1 0 0 1 0 2z" fill="#84d2f4"/><path d="m28 57h-2a1 1 0 0 1 0-2h2a1 1 0 0 1 0 2z" fill="#84d2f4"/><path d="m9 34a1 1 0 0 1 -.832-.445l-.246-.369a8.263 8.263 0 0 0 -4.238-3.238 1 1 0 1 1 .632-1.9 10.213 10.213 0 0 1 2.224 1.059 5.986 5.986 0 0 1 .565-3.554 1 1 0 1 1 1.79.894 3.982 3.982 0 0 0 -.136 3.258l1.17 2.924a1 1 0 0 1 -.929 1.371z" fill="#a1d51c"/><path d="m35.614 43.575a2.961 2.961 0 0 1 -1.326-.313 1 1 0 1 1 .894-1.789.961.961 0 0 0 1.11-.18 1 1 0 0 1 1.416 1.414 2.96 2.96 0 0 1 -2.094.868z" fill="#4891d3"/><path d="m32.178 35.4a30.07 30.07 0 0 1 -7.322-.907 1 1 0 1 1 .485-1.939 28.086 28.086 0 0 0 11.495.459 1 1 0 0 1 .328 1.972 30.288 30.288 0 0 1 -4.986.415z" fill="#4891d3"/><path d="m29.84 26.8q-2.152 0-4.312-.185a1 1 0 0 1 -.911-1.081.983.983 0 0 1 1.082-.911 48.145 48.145 0 0 0 16.824-1.525l.213-.059a1 1 0 0 1 .528 1.93l-.214.058a50.112 50.112 0 0 1 -13.21 1.773z" fill="#4891d3"/><path d="m30 17c-1.833 0-3.662-.039-5.434-.117a1 1 0 1 1 .088-2c1.746.078 3.546.117 5.346.117a105.236 105.236 0 0 0 14.072-.877 1 1 0 1 1 .274 1.981 107.155 107.155 0 0 1 -14.346.896z" fill="#4891d3"/><path d="m17.752 15.366a1 1 0 0 0 -.868-1.117 52.908 52.908 0 0 1 -6.208-1.11 5.609 5.609 0 0 0 -.5 1.935 54.7 54.7 0 0 0 6.463 1.159 1.093 1.093 0 0 0 .126.008 1 1 0 0 0 .987-.875z" fill="#4891d3"/></g></g></g></svg>